<svg width="12" height="18" viewBox="0 0 12 18" fill="none" xmlns="http://www.w3.org/2000/svg">
<path d="M2.00008 15.6667C1.8023 15.6667 1.60896 15.7253 1.44451 15.8352C1.28006 15.9451 1.15189 16.1013 1.0762 16.284C1.00051 16.4667 0.980711 16.6678 1.0193 16.8618C1.05788 17.0557 1.15312 17.2339 1.29297 17.3738C1.43283 17.5136 1.61101 17.6089 1.80499 17.6475C1.99897 17.686 2.20004 17.6662 2.38276 17.5905C2.56549 17.5149 2.72167 17.3867 2.83155 17.2222C2.94143 17.0578 3.00008 16.8644 3.00008 16.6667C3.00041 16.5353 2.97477 16.4051 2.92463 16.2836C2.87449 16.1621 2.80085 16.0517 2.70792 15.9588C2.615 15.8659 2.50463 15.7923 2.38315 15.7421C2.26168 15.692 2.1315 15.6663 2.00008 15.6667ZM2.00008 11.6667C1.8023 11.6667 1.60896 11.7253 1.44451 11.8352C1.28006 11.9451 1.15189 12.1013 1.0762 12.284C1.00051 12.4667 0.980711 12.6678 1.0193 12.8618C1.05788 13.0557 1.15312 13.2339 1.29297 13.3738C1.43283 13.5136 1.61101 13.6089 1.80499 13.6475C1.99897 13.686 2.20004 13.6662 2.38276 13.5905C2.56549 13.5149 2.72167 13.3867 2.83155 13.2222C2.94143 13.0578 3.00008 12.8644 3.00008 12.6667C3.00041 12.5353 2.97477 12.4051 2.92463 12.2836C2.87449 12.1621 2.80085 12.0517 2.70792 11.9588C2.615 11.8659 2.50463 11.7923 2.38315 11.7421C2.26168 11.692 2.1315 11.6663 2.00008 11.6667ZM2.00008 7.66667C1.8023 7.66667 1.60896 7.72532 1.44451 7.8352C1.28006 7.94508 1.15189 8.10126 1.0762 8.28398C1.00051 8.46671 0.980711 8.66778 1.0193 8.86176C1.05788 9.05574 1.15312 9.23392 1.29297 9.37377C1.43283 9.51363 1.61101 9.60887 1.80499 9.64745C1.99897 9.68604 2.20004 9.66623 2.38276 9.59055C2.56549 9.51486 2.72167 9.38669 2.83155 9.22224C2.94143 9.05779 3.00008 8.86445 3.00008 8.66667C3.00041 8.53525 2.97477 8.40507 2.92463 8.28359C2.87449 8.16212 2.80085 8.05175 2.70792 7.95883C2.615 7.8659 2.50463 7.79225 2.38315 7.74212C2.26168 7.69198 2.1315 7.66634 2.00008 7.66667ZM8.66675 2.66667C8.66675 1.95942 8.3858 1.28115 7.8857 0.781049C7.3856 0.280952 6.70732 0 6.00008 0C5.29284 0 4.61456 0.280952 4.11446 0.781049C3.61437 1.28115 3.33341 1.95942 3.33341 2.66667C2.62617 2.66667 1.94789 2.94762 1.4478 3.44772C0.947699 3.94781 0.666748 4.62609 0.666748 5.33333H11.3334C11.3334 4.62609 11.0525 3.94781 10.5524 3.44772C10.0523 2.94762 9.37399 2.66667 8.66675 2.66667ZM6.00008 3.66667C5.8023 3.66667 5.60896 3.60802 5.44451 3.49814C5.28006 3.38825 5.15189 3.23208 5.0762 3.04935C5.00051 2.86662 4.98071 2.66556 5.0193 2.47158C5.05788 2.2776 5.15312 2.09941 5.29297 1.95956C5.43283 1.81971 5.61101 1.72447 5.80499 1.68588C5.99897 1.6473 6.20004 1.6671 6.38276 1.74279C6.56549 1.81847 6.72167 1.94665 6.83155 2.1111C6.94143 2.27555 7.00008 2.46889 7.00008 2.66667C7.00041 2.79808 6.97477 2.92827 6.92463 3.04974C6.87449 3.17121 6.80085 3.28158 6.70792 3.37451C6.615 3.46743 6.50463 3.54108 6.38315 3.59122C6.26168 3.64136 6.1315 3.667 6.00008 3.66667Z" fill="#213F7D"/>
</svg>
